<svg width="1500" height="500" viewBox="0 0 1500 500" fill="none" xmlns="http://www.w3.org/2000/svg">
<path d="M219.083 299H202.703V208H219.083V244.92H221.423C223.069 241.02 225.496 238.03 228.703 235.95C231.909 233.783 235.853 232.7 240.533 232.7C243.739 232.7 246.686 233.22 249.373 234.26C252.059 235.3 254.399 236.86 256.393 238.94C258.386 241.02 259.946 243.707 261.073 247C262.199 250.207 262.763 254.02 262.763 258.44V299H246.383V262.34C246.383 257.747 245.256 254.15 243.003 251.55C240.836 248.863 237.673 247.52 233.513 247.52C228.659 247.52 225.019 249.167 222.593 252.46C220.253 255.667 219.083 260 219.083 265.46V299ZM382.182 252.72C382.182 254.8 383.265 256.317 385.432 257.27C387.599 258.137 391.542 258.873 397.262 259.48C403.849 260.173 409.222 262.167 413.382 265.46C417.542 268.667 419.622 273.173 419.622 278.98V279.76C419.622 286.173 417.282 291.287 412.602 295.1C407.922 298.913 401.335 300.82 392.842 300.82C387.815 300.82 383.525 300.17 379.972 298.87C376.419 297.57 373.472 295.967 371.132 294.06C368.792 292.067 366.972 289.9 365.672 287.56C364.459 285.133 363.635 282.793 363.202 280.54L378.282 275.6C378.975 278.373 380.405 280.8 382.572 282.88C384.825 284.96 388.249 286 392.842 286C396.915 286 399.689 285.393 401.162 284.18C402.722 282.88 403.502 281.493 403.502 280.02C403.502 279.153 403.285 278.373 402.852 277.68C402.505 276.9 401.812 276.207 400.772 275.6C399.732 274.907 398.302 274.343 396.482 273.91C394.749 273.477 392.539 273.13 389.852 272.87C382.572 272.263 376.765 270.4 372.432 267.28C368.185 264.073 366.062 259.393 366.062 253.24V252.46C366.062 249.253 366.755 246.437 368.142 244.01C369.529 241.583 371.349 239.547 373.602 237.9C375.855 236.167 378.455 234.867 381.402 234C384.349 233.133 387.382 232.7 390.502 232.7C394.575 232.7 398.085 233.22 401.032 234.26C404.065 235.213 406.622 236.513 408.702 238.16C410.782 239.72 412.472 241.497 413.772 243.49C415.072 245.397 416.069 247.26 416.762 249.08L401.942 255.06C401.162 252.72 399.819 250.9 397.912 249.6C396.005 248.213 393.535 247.52 390.502 247.52C387.729 247.52 385.649 248.04 384.262 249.08C382.875 250.033 382.182 251.247 382.182 252.72ZM484.922 234.52H501.302V299H484.922V289.64H482.582C479.722 297.093 473.568 300.82 464.122 300.82C460.915 300.82 457.925 300.3 455.152 299.26C452.378 298.22 449.952 296.617 447.872 294.45C445.792 292.283 444.145 289.597 442.932 286.39C441.805 283.097 441.242 279.24 441.242 274.82V234.52H457.622V271.44C457.622 276.033 458.705 279.63 460.872 282.23C463.038 284.743 466.288 286 470.622 286C475.562 286 479.158 284.44 481.412 281.32C483.752 278.113 484.922 273.78 484.922 268.32V234.52ZM517.721 234.52H545.021V243.88H547.361C548.575 240.327 550.611 237.597 553.471 235.69C556.418 233.697 559.928 232.7 564.001 232.7C570.415 232.7 575.571 234.737 579.471 238.81C583.371 242.797 585.321 248.907 585.321 257.14V260L568.421 261.56V259.74C568.421 256.187 567.511 253.37 565.691 251.29C563.871 249.123 561.141 248.04 557.501 248.04C553.861 248.04 551.001 249.297 548.921 251.81C546.841 254.323 545.801 257.92 545.801 262.6V283.4H560.621V299H516.161V283.4H529.421V250.12H517.721V234.52ZM642.171 289.64C640.437 293.713 638.011 296.617 634.891 298.35C631.771 299.997 628.131 300.82 623.971 300.82C620.071 300.82 616.387 300.083 612.921 298.61C609.541 297.137 606.551 294.97 603.951 292.11C601.351 289.25 599.271 285.783 597.711 281.71C596.237 277.637 595.501 273 595.501 267.8V265.72C595.501 260.607 596.237 256.013 597.711 251.94C599.184 247.867 601.177 244.4 603.691 241.54C606.204 238.68 609.107 236.513 612.401 235.04C615.781 233.48 619.377 232.7 623.191 232.7C627.784 232.7 631.467 233.48 634.241 235.04C637.101 236.6 639.354 239.027 641.001 242.32H643.341V234.52H659.721V279.5C659.721 282.1 660.891 283.4 663.231 283.4H665.701V299H654.521C651.574 299 649.147 298.133 647.241 296.4C645.421 294.667 644.511 292.413 644.511 289.64H642.171ZM627.611 285.22C632.377 285.22 636.191 283.66 639.051 280.54C641.911 277.333 643.341 273 643.341 267.54V265.98C643.341 260.52 641.911 256.23 639.051 253.11C636.191 249.903 632.377 248.3 627.611 248.3C622.844 248.3 619.031 249.903 616.171 253.11C613.311 256.23 611.881 260.52 611.881 265.98V267.54C611.881 273 613.311 277.333 616.171 280.54C619.031 283.66 622.844 285.22 627.611 285.22ZM689.4 255.84H729.96V270.66H689.4V255.84ZM780.18 252.72C780.18 254.8 781.263 256.317 783.43 257.27C785.597 258.137 789.54 258.873 795.26 259.48C801.847 260.173 807.22 262.167 811.38 265.46C815.54 268.667 817.62 273.173 817.62 278.98V279.76C817.62 286.173 815.28 291.287 810.6 295.1C805.92 298.913 799.333 300.82 790.84 300.82C785.813 300.82 781.523 300.17 777.97 298.87C774.417 297.57 771.47 295.967 769.13 294.06C766.79 292.067 764.97 289.9 763.67 287.56C762.457 285.133 761.633 282.793 761.2 280.54L776.28 275.6C776.973 278.373 778.403 280.8 780.57 282.88C782.823 284.96 786.247 286 790.84 286C794.913 286 797.687 285.393 799.16 284.18C800.72 282.88 801.5 281.493 801.5 280.02C801.5 279.153 801.283 278.373 800.85 277.68C800.503 276.9 799.81 276.207 798.77 275.6C797.73 274.907 796.3 274.343 794.48 273.91C792.747 273.477 790.537 273.13 787.85 272.87C780.57 272.263 774.763 270.4 770.43 267.28C766.183 264.073 764.06 259.393 764.06 253.24V252.46C764.06 249.253 764.753 246.437 766.14 244.01C767.527 241.583 769.347 239.547 771.6 237.9C773.853 236.167 776.453 234.867 779.4 234C782.347 233.133 785.38 232.7 788.5 232.7C792.573 232.7 796.083 233.22 799.03 234.26C802.063 235.213 804.62 236.513 806.7 238.16C808.78 239.72 810.47 241.497 811.77 243.49C813.07 245.397 814.067 247.26 814.76 249.08L799.94 255.06C799.16 252.72 797.817 250.9 795.91 249.6C794.003 248.213 791.533 247.52 788.5 247.52C785.727 247.52 783.647 248.04 782.26 249.08C780.873 250.033 780.18 251.247 780.18 252.72ZM837.42 234.52H856.53V208H872.91V234.52H896.18V250.12H872.91V279.5C872.91 282.1 874.08 283.4 876.42 283.4H893.84V299H866.54C863.593 299 861.166 298.047 859.26 296.14C857.44 294.233 856.53 291.807 856.53 288.86V250.12H837.42V234.52ZM995.319 234.52H1022.62V243.88H1024.96C1026.17 240.327 1028.21 237.597 1031.07 235.69C1034.02 233.697 1037.53 232.7 1041.6 232.7C1048.01 232.7 1053.17 234.737 1057.07 238.81C1060.97 242.797 1062.92 248.907 1062.92 257.14V260L1046.02 261.56V259.74C1046.02 256.187 1045.11 253.37 1043.29 251.29C1041.47 249.123 1038.74 248.04 1035.1 248.04C1031.46 248.04 1028.6 249.297 1026.52 251.81C1024.44 254.323 1023.4 257.92 1023.4 262.6V283.4H1038.22V299H993.759V283.4H1007.02V250.12H995.319V234.52ZM1076.22 234.52H1095.33V208H1111.71V234.52H1134.98V250.12H1111.71V279.5C1111.71 282.1 1112.88 283.4 1115.22 283.4H1132.64V299H1105.34C1102.39 299 1099.97 298.047 1098.06 296.14C1096.24 294.233 1095.33 291.807 1095.33 288.86V250.12H1076.22V234.52ZM1172.07 272.09C1172.15 273.997 1172.59 275.773 1173.37 277.42C1174.23 278.98 1175.36 280.367 1176.75 281.58C1178.22 282.707 1179.87 283.617 1181.69 284.31C1183.59 284.917 1185.59 285.22 1187.67 285.22C1191.74 285.22 1194.86 284.527 1197.03 283.14C1199.19 281.667 1200.75 279.933 1201.71 277.94L1215.75 285.74C1214.97 287.387 1213.88 289.12 1212.5 290.94C1211.11 292.673 1209.29 294.277 1207.04 295.75C1204.87 297.223 1202.18 298.437 1198.98 299.39C1195.86 300.343 1192.17 300.82 1187.93 300.82C1183.07 300.82 1178.65 300.04 1174.67 298.48C1170.68 296.92 1167.21 294.667 1164.27 291.72C1161.41 288.773 1159.15 285.177 1157.51 280.93C1155.95 276.683 1155.17 271.873 1155.17 266.5V265.72C1155.17 260.78 1155.99 256.273 1157.64 252.2C1159.37 248.127 1161.71 244.66 1164.66 241.8C1167.6 238.94 1171.03 236.73 1174.93 235.17C1178.91 233.523 1183.16 232.7 1187.67 232.7C1193.21 232.7 1197.98 233.697 1201.97 235.69C1205.95 237.597 1209.25 240.067 1211.85 243.1C1214.45 246.047 1216.35 249.34 1217.57 252.98C1218.78 256.533 1219.39 260 1219.39 263.38V272.09H1172.07ZM1187.54 247.52C1183.38 247.52 1180 248.603 1177.4 250.77C1174.8 252.85 1173.11 255.277 1172.33 258.05H1202.75C1202.23 255.017 1200.58 252.503 1197.81 250.51C1195.12 248.517 1191.7 247.52 1187.54 247.52ZM1234.12 234.52H1261.42V243.88H1263.76C1264.97 240.327 1267.01 237.597 1269.87 235.69C1272.81 233.697 1276.32 232.7 1280.4 232.7C1286.81 232.7 1291.97 234.737 1295.87 238.81C1299.77 242.797 1301.72 248.907 1301.72 257.14V260L1284.82 261.56V259.74C1284.82 256.187 1283.91 253.37 1282.09 251.29C1280.27 249.123 1277.54 248.04 1273.9 248.04C1270.26 248.04 1267.4 249.297 1265.32 251.81C1263.24 254.323 1262.2 257.92 1262.2 262.6V283.4H1277.02V299H1232.56V283.4H1245.82V250.12H1234.12V234.52Z" fill="url(#paint0_linear)"/>
<path d="M353.9 248.8C356.5 242.5 356.5 229.7 353.1 219.9C352.2 218.1 349.5 218.7 349.4 220.6V221.3C348.8 230.7 345.4 235.8 340.3 238.3C339.5 238.7 338.2 238.7 337.3 238.1C331.3 234.3 324.1 232.1 316.4 232.1C308.7 232.1 301.6 234.4 295.5 238.1C294.7 238.6 293.7 238.7 292.9 238.3C287.7 236.4 284.1 230.7 283.5 221.2V220.5C283.5 218.6 280.7 218 279.9 219.8C276.5 229.8 276.6 242.6 279.1 248.8C280.4 251.9 280.4 255.4 279.3 258.6C277.9 262.6 277.2 267.1 277.3 271.6C277.8 292.2 295.3 309.8 316 310.1C337.8 310.5 355.5 293 355.5 271.1C355.5 266.7 354.8 262.6 353.5 258.7C352.5 255.5 352.6 251.9 353.9 248.8ZM315.9 300.9C300.1 300.5 287 287.6 286.8 271.7C286.4 254.8 300.2 241 317 241.4C332.9 241.6 345.9 254.7 346.2 270.6C346.5 287.4 332.8 301.1 315.9 300.9Z" fill="#102954"/>
<path d="M321 267.9L314 257.1C312.9 255.3 310.6 254.8 308.8 255.9C307.7 256.6 307 257.8 307 259.1C307 259.8 307.2 260.5 307.6 261.1L312.3 268.5C312.7 269.1 312.5 269.8 312.2 270.3L304.8 278.4C303.4 279.9 303.5 282.3 305 283.7C305.7 284.3 306.7 284.6 307.6 284.6C308.7 284.6 309.6 284.1 310.3 283.4L315.8 277C316.3 276.5 317 276.5 317.3 277.1L321.2 282.7C321.4 283.2 321.8 283.5 322.3 283.8C323.6 284.7 325.3 284.7 326.6 283.9C327.7 283.2 328.4 282 328.4 280.7C328.4 280 328.2 279.3 327.8 278.7L321 267.9Z" fill="#102954"/>
<path d="M909.631 253.076C909.631 276.546 949.112 300.554 949.112 300.554C949.112 300.554 988.592 276.546 988.592 253.076C988.592 240.789 978.862 229.372 966.851 229.372C959.526 229.372 953.051 232.864 949.112 238.545C945.172 232.864 938.698 229.372 931.372 229.372C919.361 229.363 909.631 240.789 909.631 253.076Z" fill="url(#paint1_linear)"/>
<path d="M299.375 360.392C302.419 359.924 304.827 362.927 303.71 365.796L297.087 382.815C295.971 385.682 292.172 386.268 290.244 383.873L278.807 369.615C276.888 367.213 278.284 363.632 281.325 363.165L299.375 360.392Z" stroke="#FF00C7" stroke-opacity="0.1" stroke-width="10"/>
<path d="M575.178 133.573C576.353 130.727 580.168 130.22 582.046 132.661L593.181 147.135C595.057 149.574 593.592 153.128 590.545 153.538L572.426 155.946C569.378 156.346 567.036 153.298 568.21 150.454L575.178 133.573Z" stroke="#FF00C7" stroke-opacity="0.1" stroke-width="10"/>
<path d="M1006.36 163.191C1008.27 160.777 1012.08 161.339 1013.22 164.201L1019.94 181.179C1021.08 184.04 1018.69 187.054 1015.65 186.611L997.566 183.945C994.525 183.491 993.112 179.917 995.022 177.506L1006.36 163.191Z" stroke="#FF00C7" stroke-opacity="0.1" stroke-width="10"/>
<rect x="146" y="200" width="26" height="26" rx="5" stroke="#000AFF" stroke-opacity="0.1" stroke-width="10"/>
<rect x="822.615" y="19.3205" width="26" height="26" rx="5" transform="rotate(-24.3144 822.615 19.3205)" stroke="#000AFF" stroke-opacity="0.1" stroke-width="10"/>
<rect x="687.042" y="453.488" width="26" height="26" rx="5" transform="rotate(21.5592 687.042 453.488)" stroke="#000AFF" stroke-opacity="0.1" stroke-width="10"/>
<path d="M345.529 97.6235L345.542 97.6333L353.053 103.109L350.195 111.954L350.19 111.97L347.303 120.804L338.008 120.82H337.992L328.697 120.804L325.81 111.97L325.805 111.954L322.947 103.109L330.458 97.6333L330.471 97.6235L338 92.1728L345.529 97.6235Z" stroke="#00FF29" stroke-opacity="0.1" stroke-width="10"/>
<path d="M1412.56 400.459L1412.58 400.47L1419.48 406.695L1415.72 415.196L1415.71 415.211L1411.93 423.699L1402.68 422.752L1402.66 422.75L1393.42 421.772L1391.46 412.685L1391.46 412.669L1389.54 403.576L1397.57 398.908L1397.59 398.899L1405.64 394.258L1412.56 400.459Z" stroke="#00FF29" stroke-opacity="0.1" stroke-width="10"/>
<path d="M1204.23 87.4682L1204.24 87.4837L1207.79 96.0715L1200.75 102.13L1200.73 102.141L1193.66 108.176L1185.72 103.344L1185.71 103.336L1177.79 98.4775L1179.93 89.4329L1179.93 89.4167L1182.1 80.3793L1191.37 79.621L1191.38 79.6196L1200.65 78.8923L1204.23 87.4682Z" stroke="#00FF29" stroke-opacity="0.1" stroke-width="10"/>
<path d="M54 260C46.5 266 43.5 272.1 49.5 280.5C57 291 52 293 46.5 300" stroke="#FFC700" stroke-opacity="0.15" stroke-width="10"/>
<path d="M496.569 385.642C487.071 384.219 480.557 386.164 478.473 396.274C475.868 408.912 471.003 406.603 462.13 407.326" stroke="#FFC700" stroke-opacity="0.15" stroke-width="10"/>
<path d="M894.111 333C895.174 342.546 898.726 348.341 909.033 347.759C921.916 347.031 920.934 352.326 923.911 360.716" stroke="#FFC700" stroke-opacity="0.15" stroke-width="10"/>
<path d="M1412.55 67C1409.31 76.0424 1409.96 82.8095 1419.47 86.8136C1431.36 91.8188 1428.16 96.1444 1427.15 104.989" stroke="#FFC700" stroke-opacity="0.15" stroke-width="10"/>
<path d="M161.096 403.696L190.904 400.304M177.696 416.904L174.304 387.096" stroke="#D9FFF8" stroke-width="10"/>
<path d="M25.8122 37.086L55.3879 42.1141M38.086 54.3879L43.1141 24.8122" stroke="#D9FFF8" stroke-width="10"/>
<path d="M780 123L780 153M765 138L795 138" stroke="#D9FFF8" stroke-width="10"/>
<path d="M1202.59 371.624L1223.84 392.803M1202.62 392.837L1223.8 371.59" stroke="#D9FFF8" stroke-width="10"/>
<defs>
<linearGradient id="paint0_linear" x1="1276.88" y1="-83.9999" x2="483.922" y2="812.701" gradientUnits="userSpaceOnUse">
<stop stop-color="#FF0099"/>
<stop offset="1" stop-color="#2400FF"/>
</linearGradient>
<linearGradient id="paint1_linear" x1="949.112" y1="229.372" x2="949.112" y2="300.554" gradientUnits="userSpaceOnUse">
<stop stop-color="#F15A22"/>
<stop offset="1" stop-color="#F15A22"/>
</linearGradient>
</defs>
</svg>
